<?xml version="1.0" encoding="UTF-8"?>
<svg id="Laag_2" data-name="Laag 2" xmlns="http://www.w3.org/2000/svg" viewBox="0 0 670.11 235.79">
  <defs>
    <style>
      .cls-1, .cls-2, .cls-3, .cls-4, .cls-5 {
        font-family: Montserrat-Medium, Montserrat;
        font-weight: 500;
      }

      .cls-1, .cls-6 {
        letter-spacing: -.05em;
      }

      .cls-7 {
        fill: #ff7900;
      }

      .cls-8, .cls-9 {
        fill: #fff;
      }

      .cls-9 {
        font-size: 36px;
      }

      .cls-10, .cls-6, .cls-11, .cls-12 {
        font-family: Montserrat-SemiBold, Montserrat;
        font-weight: 600;
      }

      .cls-10, .cls-4 {
        letter-spacing: -.07em;
      }

      .cls-2 {
        letter-spacing: -.05em;
      }

      .cls-11 {
        letter-spacing: -.06em;
      }

      .cls-3 {
        letter-spacing: -.06em;
      }

      .cls-12 {
        letter-spacing: -.06em;
      }

      .cls-5 {
        letter-spacing: -.1em;
      }
    </style>
  </defs>
  <g id="Laag_1-2" data-name="Laag 1">
    <g>
      <polygon class="cls-8" points="149.9 0 114.72 0 31.33 86.57 31.33 0 0 0 0 168.7 31.33 168.7 31.33 125.48 58.2 97.99 117.61 168.7 154.24 168.7 78.95 75.37 149.9 0"/>
      <rect class="cls-8" x="164.64" width="31.33" height="168.7"/>
      <polygon class="cls-8" points="331.27 114.22 238.25 0 212.46 0 212.46 168.7 243.55 168.7 243.55 54.48 336.58 168.7 362.36 168.7 362.36 0 331.27 0 331.27 114.22"/>
      <path class="cls-8" d="M407.37,129.38c-5.46,0-10.12,1.81-13.98,5.42-3.86,3.62-5.78,8.48-5.78,14.58,0,5.78,1.93,10.57,5.78,14.34,3.86,3.78,8.51,5.66,13.98,5.66s10.12-1.89,13.98-5.66c3.86-3.77,5.78-8.56,5.78-14.34,0-6.1-1.93-10.96-5.78-14.58-3.86-3.62-8.52-5.42-13.98-5.42Z"/>
      <path class="cls-7" d="M522.38,0l-75.92,168.7h32.29l20.23-47.27c4.12-.3,9.3-.11,11.03.08,2.51,5.81,9.15,31.9,14.04,33.38,4.39,1.33,6.55-.4,8.25-4.25,2.04-4.63,10.5-42.27,13.55-42.27l5.4,13.05,25.42.86,19.94,46.43h32.78L553.22,0h-30.85ZM560.13,107.08c-5.6-6.36-11.14-42.49-21.66-20.36-5.56,11.69-6.87,25.82-13.39,37.23l-7.08-16.27-12.92-.5,32.49-75.93,32.57,75.83h-10.01Z"/>
      <rect class="cls-7" x="638.78" width="31.33" height="168.7"/>
      <text class="cls-9" transform="translate(195.85 213.93)"><tspan class="cls-1" x="0" y="0">P</tspan><tspan class="cls-4" x="24.19" y="0">O</tspan><tspan class="cls-3" x="51.84" y="0">W</tspan><tspan class="cls-2" x="90.04" y="0">ERED </tspan><tspan class="cls-5" x="194.87" y="0">B</tspan><tspan class="cls-1" x="218.34" y="0">Y</tspan><tspan class="cls-6" x="239.83" y="0" xml:space="preserve"> R</tspan><tspan class="cls-11" x="272.48" y="0">E</tspan><tspan class="cls-10" x="294.44" y="0">V</tspan><tspan class="cls-6" x="318.09" y="0">O SPO</tspan><tspan class="cls-12" x="428.43" y="0">R</tspan><tspan class="cls-6" x="452.59" y="0">T</tspan></text>
    </g>
  </g>
</svg>